<svg width="64" height="64" viewBox="0 0 64 64" fill="none" xmlns="http://www.w3.org/2000/svg">
<rect width="64" height="64" rx="32" fill="black"/>
<path d="M40.0588 21.0273C41.9718 21.0273 43.5765 22.4499 44.0088 24.3655C43.5931 23.507 42.7583 22.9204 41.7965 22.9204C40.4199 22.9205 39.304 24.1218 39.304 25.6033C39.3041 27.0846 40.42 28.2855 41.7965 28.2856C42.5667 28.2856 43.2555 27.9096 43.7127 27.319C43.0524 28.7733 41.6642 29.7753 40.0588 29.7753C39.3104 29.7752 38.6091 29.5574 38.0069 29.1776C38.0341 29.1456 38.051 29.1285 38.0521 29.1273L37.9742 29.1567C36.7885 28.3927 35.9946 26.9964 35.9946 25.401C35.9947 22.9855 37.8142 21.0275 40.0588 21.0273Z" fill="white"/>
<path d="M28.5952 21.0273C30.5081 21.0274 32.1123 22.4499 32.5446 24.3655C32.129 23.507 31.2946 22.9205 30.3329 22.9204C28.9562 22.9204 27.8398 24.1217 27.8398 25.6033C27.8399 27.0847 28.9563 28.2856 30.3329 28.2856C31.1031 28.2855 31.7919 27.9097 32.2491 27.319C31.5888 28.7733 30.2006 29.7752 28.5952 29.7753C26.3505 29.7753 24.5305 27.8167 24.5305 25.401C24.5305 22.9854 26.3505 21.0273 28.5952 21.0273Z" fill="white"/>
<path fill-rule="evenodd" clip-rule="evenodd" d="M32 0C49.6731 0 64 14.3269 64 32C64 49.6731 49.6731 64 32 64C14.3269 64 0 49.6731 0 32C0 14.3269 14.3269 0 32 0ZM31.8266 4.15903C30.8962 4.16485 30.0192 4.17836 29.8787 4.19066C29.738 4.20233 29.2924 4.24191 28.8889 4.27879C28.4853 4.31505 27.7088 4.42019 27.1647 4.51211C26.6207 4.60404 25.715 4.79372 25.153 4.93355C24.5911 5.07338 23.8003 5.29081 23.3967 5.4177C22.993 5.54395 22.1878 5.83733 21.6086 6.06906C21.0294 6.30082 20.1525 6.69 19.6608 6.93341C19.169 7.17682 18.4081 7.58556 17.9688 7.84125C17.5301 8.09692 16.8117 8.54526 16.3723 8.83723C15.9336 9.12919 15.2863 9.59607 14.9351 9.87444C14.5839 10.1528 13.911 10.7184 13.4397 11.1314C12.9684 11.5451 12.2302 12.2622 11.7997 12.7251C11.3694 13.1879 10.7633 13.8751 10.4535 14.2532C10.1438 14.6306 9.65509 15.2715 9.3677 15.6774C9.08032 16.0827 8.58321 16.837 8.26326 17.3536C7.94333 17.8702 7.40076 18.86 7.05656 19.5546C6.71299 20.2492 6.25392 21.2762 6.03743 21.8369C5.82095 22.3975 5.54061 23.1988 5.41544 23.617C5.29027 24.0352 5.08878 24.7856 4.96745 25.2841C4.84611 25.7826 4.67684 26.5985 4.59064 27.097C4.50444 27.5954 4.38416 28.3668 4.32286 28.8121C4.2341 29.4581 4.2115 30.0785 4.21213 31.887C4.21341 33.6251 4.23873 34.3563 4.32173 35.0269C4.38112 35.5073 4.49008 36.265 4.56352 36.7104C4.63698 37.1552 4.82653 38.044 4.98552 38.6848C5.14389 39.3257 5.4177 40.272 5.59396 40.7886C5.76954 41.3052 6.08247 42.1279 6.28939 42.6173C6.49564 43.1067 6.84823 43.8792 7.07238 44.333C7.2965 44.7868 7.64452 45.4497 7.84634 45.8058C8.0475 46.1619 8.42879 46.788 8.69317 47.1978C8.95753 47.6075 9.40722 48.2625 9.69141 48.6542C9.97623 49.0459 10.4852 49.7014 10.8224 50.1111C11.1595 50.5209 11.6087 51.0443 11.8201 51.276L12.2042 51.6969C12.217 50.2417 12.2652 49.2516 12.3195 48.557C12.3731 47.8624 12.4751 46.7844 12.5466 46.1617C12.6175 45.5383 12.7755 44.4315 12.8968 43.702C13.0188 42.9724 13.2461 41.7923 13.4019 41.0801C13.5583 40.368 13.8029 39.363 13.9453 38.8464C14.0884 38.3298 14.3661 37.4128 14.5628 36.8076C14.7595 36.2024 15.1284 35.1678 15.382 34.5094C15.6361 33.8511 16.0668 32.816 16.3395 32.2107C16.6116 31.6054 17.09 30.5929 17.4016 29.9612C17.9346 28.8818 17.9644 28.7974 17.9089 28.5697C17.8757 28.4364 17.7996 28.0061 17.7383 27.6144C17.6629 27.136 17.6255 26.5204 17.6236 25.7372C17.6223 25.0964 17.6601 24.2958 17.7067 23.9571C17.7533 23.6185 17.8766 22.9923 17.9801 22.5651C18.0835 22.1378 18.2707 21.5117 18.3959 21.1731C18.5211 20.8345 18.7527 20.2958 18.9111 19.9754C19.0701 19.655 19.3161 19.2032 19.4585 18.9721C19.6009 18.741 19.9095 18.2892 20.1432 17.9688C20.3769 17.6483 20.7448 17.1893 20.9607 16.9491L21.3533 16.5118C21.02 15.7844 20.8416 15.3262 20.7426 15.0232C20.5734 14.5086 20.5622 14.4016 20.559 13.3725C20.5564 12.7672 20.5769 12.1913 20.6031 12.0935L20.6505 11.9155C21.6155 12.3797 22.2838 12.6699 22.7583 12.8595C23.2328 13.0492 24.07 13.3587 24.6192 13.5471L25.618 13.89C26.5937 13.5657 27.1075 13.4137 27.3885 13.3431C27.6695 13.2726 28.2301 13.1572 28.6336 13.0866C29.0372 13.0167 29.8137 12.9286 30.3577 12.8917C30.9018 12.8548 31.6202 12.8402 31.9542 12.859C32.2882 12.8784 32.9205 12.937 33.3592 12.99C33.7986 13.0425 34.517 13.16 34.9557 13.2493C35.3951 13.3393 36.1852 13.5583 36.7121 13.7363C37.2389 13.9143 38.0217 14.2325 38.4521 14.4442L39.2345 14.8289C40.3971 14.5687 41.0077 14.3908 41.3417 14.2645C41.6757 14.1389 42.1213 13.9478 42.332 13.8397C42.5427 13.7323 42.8943 13.5317 43.1139 13.3951L43.5133 13.1454C43.5146 13.9733 43.4719 14.4469 43.4195 14.7317C43.3672 15.0166 43.2557 15.4536 43.1721 15.7028C43.0891 15.952 42.941 16.3163 42.8433 16.5118C42.7456 16.7072 42.5773 16.9986 42.4688 17.1592C42.3602 17.3198 42.1701 17.5647 42.0462 17.7038C41.9224 17.8429 41.4309 18.3602 41.4649 18.3716C47.2175 19.9557 48.3206 26.6758 44.6262 30.6204L45.3702 32.1096C46.2173 32.0482 47.1026 32.4477 47.5706 33.166C48.429 34.4834 49.7156 36.6641 49.8976 38.1498C50.5933 43.8288 45.3198 47.9825 40.6717 49.9134C40.2151 50.1031 39.4783 50.3924 39.0351 50.5569C38.5382 50.7405 38.2574 50.8183 38.3007 50.7591C38.3403 50.706 38.6171 50.3849 38.9153 50.0451C39.2136 49.7052 39.7508 49.035 40.109 48.5553C40.4666 48.0756 40.9478 47.377 41.1796 47.0035C41.4107 46.63 41.733 46.1215 42.0072 45.5149C43.3377 42.5703 43.3642 38.9579 41.7078 36.7776C41.7095 36.7972 42.0817 41.1165 41.301 43.3709C40.9056 44.5126 40.1981 45.6519 39.9057 46.0973C39.6132 46.5421 39.1303 47.213 38.8334 47.5865C38.5358 47.96 37.9372 48.6445 37.503 49.1073C37.0681 49.5701 36.3538 50.2785 35.9144 50.6812C35.4751 51.0831 34.6131 51.8101 33.9982 52.2963C33.3838 52.7825 32.4345 53.476 31.8904 53.8386C31.3463 54.2004 30.4981 54.7328 30.0064 55.0215C29.5147 55.3102 29.069 55.5742 29.0166 55.6085C28.9477 55.6531 29.0105 55.6719 29.2403 55.6752C29.416 55.6771 29.8036 55.7389 30.1024 55.8107C30.4013 55.8826 30.8894 56.0635 31.1882 56.2124C31.5943 56.4157 31.8434 56.5978 32.178 56.9389C32.4315 57.1972 32.7005 57.5482 32.7988 57.7502C33.565 59.4917 33.2794 60.4466 33.2773 60.4534L34.3529 60.2681C34.5874 59.0259 34.1495 57.1148 32.7807 56.2514C32.7997 56.2514 33.8483 56.2529 34.749 56.6418C36.2474 57.2888 36.621 58.483 36.916 59.8647C37.3848 59.7687 38.0072 59.6252 38.5001 59.4981C39.1674 59.3252 40.0581 59.0607 40.4796 58.9105C40.9011 58.7603 41.6775 58.4564 42.2044 58.2343C42.7312 58.0129 43.5071 57.6559 43.9285 57.4423C44.35 57.228 44.9823 56.8868 45.3335 56.6836C45.6849 56.4802 46.4607 55.984 47.0577 55.5808C47.6548 55.1775 48.4737 54.5786 48.8779 54.2504C49.2822 53.9222 49.9282 53.3697 50.3145 53.0234C50.7009 52.6763 51.4911 51.9001 52.0709 51.2981C52.6507 50.6961 53.3919 49.8547 53.7182 49.4287C54.0452 49.0028 54.5937 48.2324 54.9379 47.7158C55.2815 47.1992 55.7544 46.4495 55.9881 46.0487C56.2219 45.648 56.5819 44.9778 56.7875 44.5596C56.9938 44.1414 57.3081 43.4643 57.4869 43.0546C57.6651 42.6448 57.9166 42.0187 58.0456 41.6626C58.1746 41.3066 58.3786 40.695 58.4993 40.3034C58.6193 39.9117 58.8451 39.0664 59.0009 38.4255C59.1567 37.7847 59.3415 36.8958 59.4105 36.4511C59.4801 36.0057 59.5822 35.2197 59.6365 34.7032C59.6914 34.1866 59.7537 33.2402 59.776 32.5994C59.8003 31.8971 59.7864 31.0097 59.7398 30.3662C59.6977 29.7791 59.6205 28.905 59.5675 28.424C59.5145 27.943 59.4002 27.1852 59.3128 26.7405C59.2253 26.2951 59.0223 25.4069 58.8614 24.766C58.7011 24.1252 58.4698 23.3092 58.3479 22.9532C58.2259 22.5971 57.9822 21.9414 57.8072 21.4968C57.6322 21.0514 57.2663 20.2214 56.9943 19.6517C56.7216 19.082 56.2259 18.1638 55.8932 17.6123C55.5599 17.0608 55.0162 16.2251 54.6848 15.7565C54.3534 15.2872 53.8252 14.5882 53.5103 14.203C53.1961 13.8171 52.4628 13.0194 51.8816 12.4296C51.3005 11.8399 50.4951 11.0813 50.0908 10.7427C49.6866 10.4048 49.1267 9.95257 48.8457 9.73829C48.5647 9.52336 48.076 9.1735 47.7599 8.95925C47.4439 8.74568 46.8982 8.39611 46.547 8.18247C46.1958 7.96949 45.5779 7.617 45.1736 7.39948C44.7694 7.18196 44.0367 6.82358 43.5449 6.60349C43.0532 6.38275 42.2349 6.04785 41.7253 5.85947C41.2157 5.67109 40.4543 5.41593 40.0328 5.29228C39.6113 5.16863 38.8205 4.96326 38.2764 4.83638C37.7323 4.7095 36.7841 4.53203 36.1692 4.44206C35.5549 4.35208 34.7066 4.24952 34.2851 4.21326C33.8636 4.17766 32.7576 4.1532 31.8266 4.15903ZM22.5346 33.0576C22.2185 33.0045 21.9888 32.9861 22.0239 33.0152C22.0595 33.0452 22.3321 33.1795 22.6306 33.314C22.9295 33.4487 23.4894 33.7337 23.8757 33.9473C24.262 34.1603 24.8082 34.4791 25.0892 34.6552C25.3702 34.8319 25.8589 35.1747 26.175 35.4161C26.4911 35.6583 26.9793 36.085 27.2602 36.3647C27.5412 36.645 27.967 37.1357 28.2065 37.4555C28.4453 37.776 28.7727 38.3141 28.9335 38.6526C29.0945 38.9906 29.2985 39.544 29.3866 39.8825C29.522 40.4016 29.5464 40.6431 29.5471 41.4361C29.5483 42.1656 29.5169 42.5263 29.4058 43.0546C29.3273 43.4281 29.1603 44.0108 29.0358 44.3494C28.9113 44.6873 28.7008 45.1825 28.5686 45.4499C28.4358 45.7166 28.1571 46.1977 27.9489 46.5182C27.74 46.8387 27.3401 47.392 27.0591 47.748C26.7781 48.1041 26.231 48.745 25.8428 49.1722C25.4545 49.5995 24.7518 50.3025 24.2825 50.7343C23.8131 51.1661 23.1699 51.737 22.8538 52.0037C22.5376 52.2697 21.9771 52.7175 21.6086 52.9991C21.2402 53.28 20.5073 53.8036 19.9805 54.1628C19.4537 54.5221 18.656 55.0393 18.2083 55.3119L17.3937 55.8079L18.9263 56.779C20.2872 55.9595 21.0566 55.4687 21.5132 55.1599C21.9698 54.8511 22.7457 54.292 23.2373 53.9165C23.7291 53.5411 24.4619 52.9476 24.8655 52.598C25.2697 52.2484 26.1193 51.437 26.7535 50.7942C27.3876 50.1513 28.1586 49.3052 28.4658 48.9135C28.7736 48.5218 29.2459 47.8663 29.516 47.4565C29.7854 47.0468 30.194 46.3336 30.4233 45.8708C30.6531 45.408 30.9457 44.7089 31.0741 44.3172C31.2024 43.9255 31.3593 43.3569 31.4232 43.0546C31.5113 42.639 31.5379 42.2427 31.5328 41.4361C31.5277 40.5137 31.5047 40.2838 31.3656 39.7531C31.2775 39.4146 31.1061 38.9194 30.9854 38.6526C30.8647 38.3853 30.6364 37.963 30.4781 37.7137C30.3197 37.4645 30.0053 37.0431 29.7793 36.7776C29.5532 36.5123 29.1095 36.0771 28.7934 35.811C28.4773 35.545 27.9743 35.1642 27.6754 34.9648C27.3772 34.7647 26.8304 34.4519 26.462 34.2688C26.0935 34.0856 25.5042 33.8358 25.153 33.7134C24.8018 33.5911 24.1982 33.4152 23.8119 33.3219C23.4255 33.2294 22.8507 33.11 22.5346 33.0576ZM40.0588 19.2325C36.8932 19.2327 34.327 21.9944 34.327 25.401C34.327 27.3234 35.1442 29.0406 36.4251 30.1719C36.4248 30.2806 36.4203 30.4244 36.4053 30.6204C36.3531 31.3045 36.2729 32.2848 36.2257 32.4322L36.1398 32.7005C35.8136 32.1141 35.6375 31.8389 35.5376 31.7108C35.4378 31.5832 35.265 31.4007 35.154 31.3057C35.0426 31.2109 34.8695 31.0841 34.7693 31.0244C34.6692 30.9647 34.5384 30.9047 34.4789 30.891C34.3816 30.8688 34.3745 30.879 34.406 30.9972C34.4249 31.0693 34.5911 31.426 34.7749 31.7898C34.9588 32.1536 35.1663 32.6007 35.2365 32.7836C35.3066 32.9663 35.4002 33.2613 35.445 33.4383C35.4896 33.6152 35.5303 33.8681 35.5353 34.0004C35.5403 34.1327 35.5518 34.2394 35.5918 34.2394C35.6464 34.2679 35.7183 34.2003 35.8144 34.1552C35.9106 34.1095 36.0924 33.9885 36.2178 33.8863C36.3432 33.7836 36.5542 33.5554 36.6867 33.3779C36.8197 33.2002 37.0156 32.9572 37.1188 32.6384C37.3225 32.0091 37.358 31.7243 37.4007 30.8656C38.1954 31.3143 39.0991 31.5695 40.0588 31.5695C40.8582 31.5695 41.6193 31.3928 42.3106 31.0746L43.8218 33.8225C43.3882 34.4562 43.3332 35.3177 43.7585 36.0234L47.7463 42.6416C47.8496 42.8129 48.0958 42.8029 48.1757 42.6196C48.496 41.8835 49.0992 40.28 49.0542 38.7374C49.0049 37.0526 47.7962 35.0124 46.895 33.7174C46.4193 33.0338 45.568 32.8032 44.8087 33.0677L43.3636 30.4397C44.8315 29.3226 45.7911 27.4829 45.7911 25.401C45.791 21.9943 43.2244 19.2325 40.0588 19.2325ZM28.5952 19.2325C25.4295 19.2326 22.8629 21.9943 22.8628 25.401C22.8628 28.8078 25.4295 31.5695 28.5952 31.5695C31.7608 31.5694 34.3269 28.8078 34.327 25.401C34.3269 21.9943 31.7607 19.2326 28.5952 19.2325Z" fill="white"/>
</svg>
