<svg xmlns="http://www.w3.org/2000/svg" width="158" height="43" viewBox="0 0 158 43" fill="none">
<path d="M40.4848 27.8038C42.2544 27.8038 43.7727 27.1649 45.0393 25.8872C46.3247 24.6094 46.9581 23.0685 46.9581 21.2645C46.9581 19.4794 46.3247 17.9479 45.0393 16.6701C43.7727 15.3735 42.2544 14.7253 40.4848 14.7253C38.6965 14.7253 37.169 15.3735 35.9023 16.6701C34.6355 17.9479 34.0021 19.4794 34.0021 21.2645C34.0021 23.0685 34.6355 24.6094 35.9023 25.8872C37.169 27.1649 38.6965 27.8038 40.4848 27.8038ZM40.4848 34.3432C36.9082 34.3432 33.8532 33.0653 31.3197 30.5098C28.7863 27.9542 27.5195 24.8725 27.5195 21.2645C27.5195 17.6754 28.7863 14.6031 31.3197 12.0475C33.8532 9.48254 36.9082 8.19531 40.4848 8.19531C44.0428 8.19531 47.0885 9.48254 49.6219 12.0475C52.1646 14.6031 53.4407 17.6754 53.4407 21.2645C53.4407 24.8725 52.1646 27.9542 49.6219 30.5098C47.0885 33.0653 44.0428 34.3432 40.4848 34.3432Z" fill="#14CF93"/>
<path d="M54.957 34.3432V27.8038H67.9129C69.6826 27.8038 71.2008 27.1649 72.4678 25.8872C73.7528 24.6094 74.3956 23.0685 74.3956 21.2645C74.3956 19.4794 73.7528 17.9479 72.4678 16.6701C71.2008 15.3735 69.6826 14.7253 67.9129 14.7253H61.4303V25.2294H54.957V8.19531H67.9129C71.4709 8.19531 74.5168 9.48254 77.0498 12.0475C79.6024 14.6031 80.8779 17.6754 80.8779 21.2645C80.8779 24.8725 79.6024 27.9542 77.0498 30.5098C74.5168 33.0653 71.4709 34.3432 67.9129 34.3432H54.957Z" fill="#14CF93"/>
<path d="M95.4185 24.5342V17.9949H108.374V24.5342H95.4185ZM95.4185 34.3432C91.8415 34.3432 88.7868 33.0653 86.2531 30.5098C83.72 27.9542 82.4531 24.8725 82.4531 21.2645C82.4531 17.6754 83.72 14.6031 86.2531 12.0475C88.7868 9.48254 91.8415 8.19531 95.4185 8.19531H108.374V14.7347H95.4185C93.63 14.7347 92.1027 15.3735 90.8358 16.6701C89.5689 17.9479 88.9362 19.4794 88.9362 21.2645C88.9362 23.0685 89.5689 24.6094 90.8358 25.8872C92.1027 27.1649 93.63 27.8038 95.4185 27.8038H108.374V34.3432H95.4185Z" fill="#14CF93"/>
<path d="M13.0418 34.3432C9.46525 34.3432 6.41021 33.0653 3.88609 30.5098C1.35266 27.9542 0.0859375 24.8725 0.0859375 21.2645C0.0859375 17.6754 1.35266 14.6031 3.88609 12.0475C6.41021 9.48254 9.46525 8.19531 13.0418 8.19531H31.195L26.0071 14.7347H13.0418C11.2535 14.7347 9.72606 15.3735 8.45932 16.6701C7.20191 17.9479 6.56856 19.4794 6.56856 21.2645C6.56856 23.0685 7.20191 24.6094 8.45932 25.8872C9.72606 27.1649 11.2535 27.8038 13.0418 27.8038H26.0071L31.7725 34.3432H13.0418Z" fill="#14CF93"/>
<path d="M112.641 24.5315H119.095V17.9922H112.641V24.5315Z" fill="#14CF93"/>
<path d="M157.68 42.3563C151.905 42.3563 146.978 40.2987 142.898 36.174C138.81 32.0588 136.77 27.0885 136.77 21.2633C136.77 15.4756 138.81 10.5148 142.898 6.39954C146.978 2.24671 151.905 0.179688 157.68 0.179688V10.7215C154.792 10.7215 152.324 11.7644 150.285 13.8502C148.245 15.9078 147.221 18.3789 147.221 21.2633C147.221 24.1759 148.245 26.6658 150.285 28.7233C152.324 30.781 154.792 31.8051 157.68 31.8051V42.3563ZM115.859 42.3563V31.8051C118.719 31.8051 121.169 30.781 123.218 28.7233C125.285 26.6658 126.319 24.1759 126.319 21.2633C126.319 18.3789 125.285 15.9078 123.218 13.8502C121.169 11.7644 118.719 10.7215 115.859 10.7215V0.179688C121.607 0.179688 126.524 2.24671 130.604 6.39954C134.711 10.5148 136.77 15.4756 136.77 21.2633C136.77 27.0885 134.711 32.0588 130.604 36.174C126.524 40.2987 121.607 42.3563 115.859 42.3563Z" fill="#14CF93"/>
</svg>
