<svg width="48" height="48" viewBox="0 0 48 48" fill="none" xmlns="http://www.w3.org/2000/svg">
<circle cx="24" cy="24" r="24" fill="black"/>
<path d="M37 37C33.4095 37 30.3465 35.7315 27.81 33.1889C25.2682 30.652 24.0002 27.5881 24.0002 23.9971C24.0002 20.4293 25.2682 17.3711 27.81 14.8343C30.3465 12.2742 33.4095 11 37 11V17.4986C35.2045 17.4986 33.6701 18.1414 32.4021 19.4273C31.1341 20.6957 30.4972 22.219 30.4972 23.9971C30.4972 25.7926 31.1341 27.3275 32.4021 28.5959C33.6701 29.8643 35.2045 30.4957 37 30.4957V37ZM11 37V30.4957C12.778 30.4957 14.3007 29.8643 15.5746 28.5959C16.8601 27.3275 17.5028 25.7926 17.5028 23.9971C17.5028 22.219 16.8601 20.6957 15.5746 19.4273C14.3007 18.1414 12.778 17.4986 11 17.4986V11C14.573 11 17.6302 12.2742 20.1666 14.8343C22.7201 17.3711 24.0002 20.4293 24.0002 23.9971C24.0002 27.5881 22.7201 30.652 20.1666 33.1889C17.6302 35.7315 14.573 37 11 37Z" fill="#14CF93"/>
</svg>
