<svg width="64" height="64" viewBox="0 0 64 64" fill="none" xmlns="http://www.w3.org/2000/svg">
<g clip-path="url(#clip0_372_90)">
<path d="M32 64C49.6731 64 64 49.6731 64 32C64 14.3269 49.6731 0 32 0C14.3269 0 0 14.3269 0 32C0 49.6731 14.3269 64 32 64Z" fill="#86BCED"/>
<path d="M23.8987 15.4667C23.9809 15.3222 24.1453 15.1667 24.2686 15.1111C24.3918 15.0556 25.9844 15.0111 27.803 15C30.5565 15 31.173 15.0222 31.4298 15.1667C31.5942 15.2556 31.7997 15.4778 31.8922 15.6667C32.0257 15.9556 32.0463 18.0111 32.0463 48.3333L31.7894 48.6111C31.6456 48.7556 31.3785 48.9111 31.1935 48.9444C31.0086 48.9778 29.3647 48.9889 24.2172 48.9444L23.7651 48.3889L23.6829 36.4444C23.6418 29.8667 23.6315 22.5222 23.6726 20.1111C23.7343 16.5 23.7651 15.6778 23.8987 15.4667Z" fill="white"/>
<path d="M35.612 19.4222C36.5367 19.0667 37.6669 18.6556 38.1293 18.5C38.6019 18.3556 39.0848 18.2222 39.2081 18.2222C39.3416 18.2222 39.5677 18.2889 39.7218 18.3778C39.8759 18.4556 40.0814 18.6222 40.1739 18.7333C40.2663 18.8444 40.8109 20.3667 41.376 22.1111C41.9513 23.8444 43.5953 28.9 45.0337 33.3333C46.4721 37.7556 47.9516 42.3 48.3215 43.4111C48.6914 44.5222 48.9996 45.5889 48.9996 45.7778C48.9996 46 48.8866 46.237 48.6605 46.4889C48.4242 46.7667 47.9722 47.0444 47.1502 47.4222C46.4926 47.7222 45.3625 48.1778 44.633 48.4444C43.8932 48.7 43.0815 48.9222 42.8144 48.9333C42.4753 48.9333 42.2801 48.8778 42.1157 48.7222C41.9822 48.6 41.7972 48.3222 41.7048 48.1111C41.602 47.8889 41.0061 46.1222 40.3896 44.1667C39.8066 42.3173 38.5713 38.4309 37.5785 35.3078L37.41 34.7778C36.3929 31.5667 35.1805 27.7889 34.7181 26.3889C34.2455 24.9778 33.6907 23.3444 33.4749 22.7444C33.2489 22.1444 33.0742 21.5222 33.0742 21.3556C33.0742 21.1889 33.1667 20.8889 33.2797 20.6889C33.3927 20.4889 33.588 20.2667 33.7113 20.2C33.8448 20.1333 34.6976 19.7778 35.612 19.4222Z" fill="white"/>
<path d="M15.156 19.2111L15.4848 18.8778L15.8136 18.5556H21.3618L22.081 19.3333V33.7222C22.081 43.0556 22.0399 48.2 21.9783 48.3889C21.9166 48.5333 21.7111 48.7333 21.5159 48.8333C21.2282 48.9667 20.6323 49 18.485 49C16.3171 49 15.752 48.9667 15.5054 48.8333C15.3307 48.7333 15.1458 48.5667 15.0944 48.4444C15.0225 48.3 14.9917 44.0111 15.0019 36.1889C15.0019 29.5778 15.043 23.0444 15.156 19.2111Z" fill="white"/>
</g>
<defs>
<clipPath id="clip0_372_90">
<rect width="64" height="64" fill="white"/>
</clipPath>
</defs>
</svg>
