<svg width="64" height="64" viewBox="0 0 64 64" fill="none" xmlns="http://www.w3.org/2000/svg">
<rect width="64" height="64" rx="32" fill="black"/>
<path fill-rule="evenodd" clip-rule="evenodd" d="M32 0C49.6731 1.66995e-05 64 14.3269 64 32C64 49.6731 49.6731 64 32 64C14.3269 64 0 49.6731 0 32C2.47267e-05 14.3269 14.3269 0 32 0ZM24.48 37.1842C24.4359 37.185 24.8079 37.8105 25.3285 38.555C25.8346 39.3148 26.8766 40.5515 27.606 41.2815C28.8563 42.533 29.1094 42.712 30.9701 43.6209C32.0716 44.1573 33.6049 44.9021 34.3641 45.2596C35.5549 45.8109 35.8229 45.9898 36.1802 46.5709C36.4183 46.9434 36.7458 47.5393 36.9095 47.9118C37.0733 48.2843 37.2221 48.8654 37.2221 49.2081C37.2221 49.5657 37.1179 50.0573 36.9989 50.2957C36.5675 51.1113 35.5091 52.2158 34.5428 52.3368C34.0218 52.3964 33.7091 52.3369 33.1286 52.0389C32.7267 51.8452 31.9972 51.3237 31.5357 50.9066L30.6725 50.1467C27.3235 50.0424 26.3706 49.9382 25.537 49.7147C24.8821 49.5359 23.706 49.0889 22.9319 48.7165C22.1579 48.344 20.982 47.6882 20.327 47.2562C19.672 46.8241 18.6746 46.109 18.0941 45.6769C17.201 45.0065 17.0967 44.9469 17.3349 45.3193C17.4837 45.5577 17.9603 46.2133 18.3919 46.7943C18.8236 47.3754 19.7316 48.2991 20.4014 48.8802C21.0712 49.4613 22.1878 50.2809 22.9023 50.698C23.6167 51.1301 24.5098 51.6068 24.9117 51.7409C25.4325 51.9345 25.5964 52.0687 25.537 52.2325C25.4775 52.3517 25.2392 53.1564 25.001 54.0205C24.7629 54.8847 24.4504 56.2703 24.3015 57.1046L24.0485 58.6095C25.3137 58.9819 26.4599 59.2055 27.3977 59.3694C28.3355 59.5184 29.9133 59.6822 30.8957 59.7269C32.3096 59.8014 32.548 59.7864 32.0123 59.6672C31.0551 59.4373 30.6704 58.2858 30.6816 57.3014C30.7008 55.6108 30.7499 53.9233 30.8213 52.2325C31.3423 52.5752 31.9228 52.9179 32.4587 53.2308C33.0541 53.5734 33.6793 53.7969 34.0961 53.8416C34.5278 53.8714 35.0488 53.7969 35.5847 53.5883C36.1354 53.3947 36.6564 53.0371 37.1922 52.5007C37.6239 52.0687 38.1599 51.3386 38.3683 50.8916C38.6957 50.1765 38.7404 49.9232 38.6808 48.9548C38.6362 48.195 38.4576 47.4499 38.1451 46.6453C37.892 45.9898 37.4187 45.3193 37.4187 45.3193L41.7713 45.1267C42.0728 45.1133 42.3211 44.8673 42.275 44.569C41.8652 41.911 37.6684 41.5464 36.0238 43.8961C33.9548 43.2107 32.176 42.2798 31.1936 41.803C30.2111 41.3114 28.8119 40.477 28.0676 39.9556C27.3382 39.4192 26.2366 38.5699 25.656 38.0782C25.061 37.5869 24.5252 37.1847 24.48 37.1842ZM32.6819 4.03336C31.3721 4.00357 29.705 4.04821 28.9607 4.12269C28.2313 4.19719 26.8469 4.43563 25.9091 4.64421C24.9713 4.86769 23.5274 5.27005 22.7087 5.55314C21.89 5.83621 20.6843 6.32782 20.0294 6.62581C19.3744 6.93868 18.1983 7.57948 17.4242 8.05625C16.6502 8.51812 15.4742 9.32252 14.8193 9.81418C14.1643 10.3207 12.9586 11.3936 12.125 12.213C11.3064 13.0473 10.2346 14.2541 9.72841 14.9097C9.2372 15.5653 8.47796 16.668 8.06115 17.3683C7.62949 18.0685 7.01926 19.1711 6.70667 19.8266C6.39409 20.4822 5.96245 21.4804 5.73916 22.0615C5.53076 22.6426 5.1437 23.8793 4.90553 24.8179C4.66737 25.7565 4.36966 27.2911 4.25057 28.2148C4.13148 29.1237 4.02735 30.718 4.02735 31.746C4.02735 32.7741 4.13148 34.3981 4.25057 35.3666C4.38454 36.3201 4.65254 37.7506 4.84605 38.5253C5.03957 39.3001 5.41171 40.5366 5.66475 41.2815C5.93268 42.0265 6.51318 43.3674 6.95975 44.2614C7.40631 45.1553 8.13566 46.4516 8.58223 47.137C9.02879 47.8074 9.43076 48.3886 9.50519 48.4184C9.5647 48.4476 9.62419 47.8668 9.63907 47.1073C9.78078 40.0166 13.8523 33.8155 19.9102 30.4051C18.8384 29.0195 18.377 28.2894 18.1984 27.8722C17.99 27.4103 17.8709 26.8292 17.8709 26.3524C17.8709 25.9203 18.0048 25.2052 18.1685 24.7881C18.3174 24.356 18.8086 23.462 19.2254 22.8065C19.6571 22.1509 20.58 21.0185 21.2945 20.2735L22.5895 18.9326C22.1429 17.6662 21.9792 16.7574 21.9345 16.1018C21.875 15.2377 21.9196 14.6416 22.0983 13.9413C22.2471 13.405 22.5152 12.7495 22.7236 12.4962C22.9171 12.228 23.2296 11.9003 23.4231 11.7811C23.6018 11.6619 24.0187 11.498 24.3461 11.4086C24.7331 11.3192 25.2839 11.319 25.9091 11.4233C26.445 11.5127 27.219 11.7214 27.6209 11.8853C28.0377 12.0641 28.8119 12.4962 29.3775 12.8537L30.3749 13.4944C31.8187 13.1667 32.8756 13.0325 33.6497 12.9729C34.4684 12.9133 35.5996 12.9432 36.329 13.0326C37.0286 13.1369 38.0408 13.3306 38.6064 13.4944L39.6038 13.7923C40.348 13.1815 41.0478 12.7793 41.6135 12.4962C42.2981 12.1833 42.8786 12.0045 43.2954 12.0045C43.8015 12.0045 44.01 12.0939 44.397 12.4962C44.8584 12.958 44.8733 13.0028 44.7989 13.9413C44.7394 14.582 44.5606 15.2377 44.2629 15.8784L43.8165 16.8468C44.4379 17.598 45.5314 18.4015 46.8326 23.023C46.4513 22.2949 44.3908 20.1082 41.5836 21.0036C41.1073 21.227 41.0476 21.227 40.1694 20.8694C35.6811 19.0725 31.5162 20.8455 28.2164 23.909C26.6683 25.3542 26.2364 25.6672 24.9712 26.278L23.4975 26.9782C28.5765 31.448 33.0962 33.7155 37.7432 29.0643C38.7256 28.0809 39.9313 26.8293 40.4225 26.278C41.2428 25.3823 41.8431 24.9465 43.0722 24.9817C44.4545 24.9817 45.3529 25.6275 46.4513 26.427C47.2698 27.008 47.9246 27.5891 47.8951 27.6935C47.8651 27.7978 47.4483 27.9021 46.7787 27.9468C45.2192 28.0692 43.5936 29.6902 45.3795 31.0011C46.1336 31.5293 47.3647 31.3945 48.2524 31.448C46.2202 34.6506 41.6169 36.5704 37.9365 35.6199C37.4603 35.5007 36.7906 35.2622 36.4482 35.0834C36.0909 34.9047 35.4805 34.4876 35.0785 34.1449L34.3342 33.534C35.5251 35.0389 36.7308 36.6033 37.7728 38.0038L39.5568 40.3016C42.4233 40.5857 43.8811 41.9361 44.523 44.4864C44.59 44.7527 44.8252 44.9473 45.0999 44.9464C45.4157 44.9453 45.7192 44.9433 46.0054 44.9407C47.307 44.9287 48.381 45.9753 48.381 47.277V54.5894C48.381 54.5894 48.4568 54.5084 48.9223 54.2141C49.0716 54.1243 49.8157 53.5136 50.5448 52.8732C51.2891 52.2325 52.4054 51.1002 53.0604 50.3701C53.7004 49.6252 54.5786 48.5226 55.0103 47.9118C55.442 47.3009 56.1269 46.1984 56.5437 45.4535C56.9605 44.7085 57.6004 43.3675 57.9726 42.4736C58.3447 41.5796 58.8061 40.1939 59.0294 39.4191C59.2378 38.6443 59.5059 37.4076 59.6398 36.6627C59.7589 35.9176 59.9077 34.1447 59.9524 32.7144C60.0119 30.718 59.9672 29.69 59.7737 28.3193C59.6397 27.3359 59.342 25.7863 59.1038 24.8923C58.8805 23.9984 58.449 22.6574 58.1662 21.9125C57.8833 21.1675 57.3326 19.9308 56.9456 19.1561C56.5586 18.3813 55.9332 17.2788 55.576 16.6977C55.2038 16.1167 54.415 15.0587 53.8196 14.3138C53.2242 13.5689 52.1523 12.4067 51.423 11.7214C50.6936 11.0211 49.5921 10.0825 48.9818 9.63551C48.3715 9.17365 47.2997 8.44359 46.6001 8.0264C45.9005 7.60924 44.7394 6.9685 43.9952 6.62581C43.2658 6.28313 41.8664 5.74684 40.9137 5.43395C39.9462 5.10618 38.2343 4.67392 37.1178 4.46532C35.6293 4.19715 34.4086 4.07806 32.6819 4.03336ZM25.5482 13.3873C24.8933 13.2979 24.7443 13.3426 24.4764 13.6107C24.2978 13.7746 24.134 14.1024 24.134 14.3258C24.1191 14.5642 24.1191 15.0112 24.134 15.339C24.1489 15.6668 24.2827 16.2926 24.4167 16.7247C24.5507 17.1568 24.7295 17.4845 24.8188 17.4547C24.9074 17.4249 25.6129 16.9498 26.4137 16.4106L26.4562 16.3821C27.2749 15.8159 27.9596 15.339 27.9744 15.3092C28.0039 15.279 27.8701 15.0109 27.6768 14.7132C27.4982 14.4153 27.1111 14.0129 26.8283 13.8192C26.5455 13.6256 25.965 13.432 25.5482 13.3873Z" fill="white"/>
<path d="M35.741 23.5969C36.7382 23.3849 37.6855 23.8661 37.8567 24.6716C38.0279 25.477 37.3583 26.3019 36.3612 26.5139C35.364 26.7259 34.4168 26.2447 34.2455 25.4392C34.0743 24.6338 34.7438 23.8089 35.741 23.5969Z" fill="white"/>
<path d="M46.8895 23.397C47.0742 23.9712 47.2823 24.7166 47.4267 25.4792C47.3389 25.4993 47.2474 25.5134 47.153 25.5204C46.3764 25.578 45.6981 25.1483 45.6379 24.5606C45.579 23.9845 46.136 23.4714 46.8895 23.397Z" fill="white"/>
</svg>
